<?xml version="1.0" encoding="utf-8"?>
<!-- Generator: Adobe Illustrator 23.0.1, SVG Export Plug-In . SVG Version: 6.00 Build 0)  -->
<!DOCTYPE svg PUBLIC "-//W3C//DTD SVG 1.1//EN" "http://www.w3.org/Graphics/SVG/1.1/DTD/svg11.dtd" [
	<!ENTITY ns_flows "http://ns.adobe.com/Flows/1.0/">
	<!ENTITY ns_extend "http://ns.adobe.com/Extensibility/1.0/">
	<!ENTITY ns_ai "http://ns.adobe.com/AdobeIllustrator/10.0/">
	<!ENTITY ns_graphs "http://ns.adobe.com/Graphs/1.0/">
	<!ENTITY ns_vars "http://ns.adobe.com/Variables/1.0/">
	<!ENTITY ns_imrep "http://ns.adobe.com/ImageReplacement/1.0/">
	<!ENTITY ns_sfw "http://ns.adobe.com/SaveForWeb/1.0/">
	<!ENTITY ns_custom "http://ns.adobe.com/GenericCustomNamespace/1.0/">
	<!ENTITY ns_adobe_xpath "http://ns.adobe.com/XPath/1.0/">
]>
<svg version="1.1" xmlns:x="&ns_extend;" xmlns:i="&ns_ai;" xmlns:graph="&ns_graphs;"
	 xmlns="http://www.w3.org/2000/svg" xmlns:xlink="http://www.w3.org/1999/xlink" xmlns:a="http://ns.adobe.com/AdobeSVGViewerExtensions/3.0/"
	 x="0px" y="0px" viewBox="0 0 750 750" enable-background="new 0 0 750 750" xml:space="preserve">
<metadata>
	<sfw  xmlns="&ns_sfw;">
		<slices></slices>
		<sliceSourceBounds  bottomLeftOrigin="true" height="6973.322" width="5202" x="-1190" y="-1843.5"></sliceSourceBounds>
	</sfw>
</metadata>
<g id="FILL-BACKGROUND">
	<rect fill="#FFFFFF" width="750" height="750"/>
</g>
<g id="N-DIMENSIONS">
</g>
<g id="N-TEXT">
</g>
<g id="AG-DIAGRAM">
</g>
<g id="AG-DETAIL-DIAGRAM">
</g>
<g id="AG-DETAIL">
	<g id="POLYLINE_925_">
		
			<path fill="none" stroke="#E74C3C" stroke-width="2.5" stroke-linecap="round" stroke-linejoin="round" stroke-miterlimit="10" d="
			M510.955,366.462c-1.188,2.06-0.95,4.714,0.589,6.528c1.538,1.813,4.119,2.483,6.344,1.646c2.226-0.837,3.725-3.041,3.687-5.418
			c-0.037-2.377-1.608-4.533-3.858-5.298c-2.242-0.762-4.792-0.02-6.273,1.828C511.264,365.973,511.1,366.212,510.955,366.462z"/>
	</g>
	<g id="POLYLINE_924_">
		
			<path fill="none" stroke="#E74C3C" stroke-width="2.5" stroke-linecap="round" stroke-linejoin="round" stroke-miterlimit="10" d="
			M510.955,377.846c-1.188,2.06-0.95,4.714,0.589,6.528c1.538,1.813,4.119,2.483,6.344,1.646c2.226-0.837,3.725-3.041,3.687-5.418
			c-0.037-2.377-1.608-4.533-3.858-5.298c-2.242-0.762-4.792-0.02-6.273,1.828C511.264,377.357,511.1,377.596,510.955,377.846z"/>
	</g>
	<g id="POLYLINE_923_">
		
			<path fill="none" stroke="#E74C3C" stroke-width="2.5" stroke-linecap="round" stroke-linejoin="round" stroke-miterlimit="10" d="
			M501.097,372.154c-1.188,2.06-0.95,4.714,0.589,6.528c1.538,1.813,4.119,2.483,6.344,1.646c2.226-0.837,3.725-3.041,3.687-5.418
			c-0.037-2.377-1.608-4.533-3.858-5.298c-2.242-0.762-4.792-0.02-6.273,1.828C501.405,371.665,501.241,371.904,501.097,372.154z"/>
	</g>
	<g id="POLYLINE_922_">
		
			<path fill="none" stroke="#E74C3C" stroke-width="2.5" stroke-linecap="round" stroke-linejoin="round" stroke-miterlimit="10" d="
			M510.955,389.23c-1.188,2.06-0.95,4.714,0.589,6.528c1.538,1.813,4.119,2.483,6.344,1.646c2.226-0.837,3.725-3.041,3.687-5.418
			c-0.037-2.377-1.608-4.533-3.858-5.298c-2.242-0.762-4.792-0.02-6.273,1.828C511.264,388.741,511.1,388.98,510.955,389.23z"/>
	</g>
	<g id="POLYLINE_921_">
		
			<path fill="none" stroke="#E74C3C" stroke-width="2.5" stroke-linecap="round" stroke-linejoin="round" stroke-miterlimit="10" d="
			M501.097,383.538c-1.188,2.06-0.95,4.714,0.589,6.528c1.538,1.813,4.119,2.483,6.344,1.646c2.226-0.837,3.725-3.041,3.687-5.419
			c-0.037-2.377-1.608-4.533-3.858-5.298c-2.242-0.762-4.792-0.02-6.273,1.828C501.405,383.049,501.241,383.288,501.097,383.538z"/>
	</g>
	<g id="POLYLINE_920_">
		
			<path fill="none" stroke="#E74C3C" stroke-width="2.5" stroke-linecap="round" stroke-linejoin="round" stroke-miterlimit="10" d="
			M491.238,377.846c-1.188,2.06-0.95,4.714,0.589,6.528c1.538,1.813,4.119,2.483,6.344,1.646c2.226-0.837,3.725-3.041,3.687-5.418
			c-0.038-2.377-1.608-4.533-3.858-5.298c-2.242-0.762-4.792-0.02-6.273,1.828C491.546,377.357,491.383,377.596,491.238,377.846z"/>
	</g>
	<g id="POLYLINE_919_">
		
			<path fill="none" stroke="#E74C3C" stroke-width="2.5" stroke-linecap="round" stroke-linejoin="round" stroke-miterlimit="10" d="
			M491.238,372.154c-1.19-2.058-3.607-3.179-5.948-2.754c-2.339,0.425-4.21,2.326-4.598,4.671c-0.388,2.346,0.771,4.747,2.849,5.903
			c2.077,1.156,4.729,0.874,6.518-0.693c1.781-1.56,2.413-4.14,1.553-6.347C491.508,372.666,491.382,372.404,491.238,372.154z"/>
	</g>
	<g id="POLYLINE_918_">
		
			<path fill="none" stroke="#E74C3C" stroke-width="2.5" stroke-linecap="round" stroke-linejoin="round" stroke-miterlimit="10" d="
			M501.097,366.462c-1.19-2.058-3.607-3.179-5.948-2.754c-2.339,0.425-4.21,2.326-4.598,4.671c-0.388,2.346,0.771,4.747,2.849,5.903
			c2.077,1.156,4.729,0.874,6.518-0.692c1.781-1.56,2.413-4.14,1.553-6.347C501.366,366.974,501.241,366.712,501.097,366.462z"/>
	</g>
	<g id="POLYLINE_917_">
		
			<path fill="none" stroke="#E74C3C" stroke-width="2.5" stroke-linecap="round" stroke-linejoin="round" stroke-miterlimit="10" d="
			M510.955,360.77c-1.19-2.059-3.607-3.179-5.948-2.754c-2.339,0.425-4.21,2.326-4.598,4.671c-0.388,2.346,0.771,4.747,2.849,5.903
			c2.077,1.156,4.729,0.874,6.518-0.693c1.781-1.56,2.413-4.14,1.553-6.347C511.225,361.282,511.1,361.02,510.955,360.77z"/>
	</g>
	<g id="POLYLINE_916_">
		
			<path fill="none" stroke="#E74C3C" stroke-width="2.5" stroke-linecap="round" stroke-linejoin="round" stroke-miterlimit="10" d="
			M520.814,355.078c-1.19-2.058-3.607-3.179-5.948-2.754c-2.339,0.425-4.21,2.326-4.598,4.671c-0.388,2.346,0.771,4.747,2.849,5.903
			c2.077,1.156,4.729,0.874,6.518-0.693c1.781-1.56,2.413-4.14,1.553-6.347C521.084,355.59,520.959,355.329,520.814,355.078z"/>
	</g>
	<g id="POLYLINE_915_">
		
			<path fill="none" stroke="#E74C3C" stroke-width="2.5" stroke-linecap="round" stroke-linejoin="round" stroke-miterlimit="10" d="
			M530.673,349.386c-1.19-2.058-3.607-3.179-5.948-2.754c-2.339,0.425-4.21,2.326-4.598,4.671c-0.388,2.346,0.771,4.747,2.849,5.903
			c2.077,1.156,4.729,0.874,6.518-0.692c1.781-1.56,2.413-4.14,1.553-6.347C530.943,349.898,530.817,349.637,530.673,349.386z"/>
	</g>
	<g id="POLYLINE_914_">
		
			<path fill="none" stroke="#E74C3C" stroke-width="2.5" stroke-linecap="round" stroke-linejoin="round" stroke-miterlimit="10" d="
			M525.744,357.924c-2.378,0.002-4.557,1.534-5.359,3.774c-0.801,2.238-0.091,4.808,1.747,6.317
			c1.838,1.509,4.496,1.705,6.536,0.484c2.04-1.221,3.122-3.659,2.659-5.991c-0.461-2.323-2.379-4.16-4.72-4.519
			C526.321,357.946,526.033,357.924,525.744,357.924z"/>
	</g>
	<g id="POLYLINE_913_">
		
			<path fill="none" stroke="#E74C3C" stroke-width="2.5" stroke-linecap="round" stroke-linejoin="round" stroke-miterlimit="10" d="
			M525.744,369.308c-2.378,0.002-4.557,1.534-5.359,3.774c-0.801,2.238-0.091,4.808,1.747,6.317
			c1.838,1.509,4.496,1.705,6.536,0.484c2.04-1.221,3.122-3.659,2.659-5.991c-0.461-2.323-2.379-4.16-4.72-4.519
			C526.321,369.33,526.033,369.308,525.744,369.308z"/>
	</g>
	<g id="POLYLINE_912_">
		
			<path fill="none" stroke="#E74C3C" stroke-width="2.5" stroke-linecap="round" stroke-linejoin="round" stroke-miterlimit="10" d="
			M525.744,380.692c-2.378,0.002-4.557,1.534-5.359,3.774c-0.801,2.238-0.091,4.808,1.747,6.317
			c1.838,1.509,4.496,1.705,6.536,0.484c2.04-1.221,3.122-3.659,2.659-5.991c-0.461-2.323-2.379-4.16-4.72-4.518
			C526.321,380.714,526.033,380.692,525.744,380.692z"/>
	</g>
	<g id="POLYLINE_911_">
		
			<path fill="none" stroke="#E74C3C" stroke-width="2.5" stroke-linecap="round" stroke-linejoin="round" stroke-miterlimit="10" d="
			M525.744,392.076c-2.378,0.002-4.557,1.534-5.359,3.774c-0.801,2.238-0.091,4.808,1.747,6.317
			c1.838,1.509,4.496,1.705,6.536,0.484c2.04-1.221,3.122-3.659,2.659-5.991c-0.461-2.323-2.379-4.16-4.72-4.519
			C526.321,392.098,526.033,392.076,525.744,392.076z"/>
	</g>
</g>
<g id="AG-PEOPLE">
</g>
<g id="AG-SPORTS">
	<g id="POLYLINE_910_">
		
			<line fill="none" stroke="#E74C3C" stroke-width="2.5" stroke-linecap="round" stroke-linejoin="round" stroke-miterlimit="10" x1="635.565" y1="484.95" x2="612.036" y2="484.95"/>
	</g>
	<g id="POLYLINE_909_">
		
			<line fill="none" stroke="#E74C3C" stroke-width="2.5" stroke-linecap="round" stroke-linejoin="round" stroke-miterlimit="10" x1="635.565" y1="265.05" x2="612.036" y2="265.05"/>
	</g>
	<g id="POLYLINE_908_">
		
			<line fill="none" stroke="#E74C3C" stroke-width="2.5" stroke-linecap="round" stroke-linejoin="round" stroke-miterlimit="10" x1="114.434" y1="484.95" x2="137.962" y2="484.95"/>
	</g>
	<g id="POLYLINE_907_">
		
			<line fill="none" stroke="#E74C3C" stroke-width="2.5" stroke-linecap="round" stroke-linejoin="round" stroke-miterlimit="10" x1="114.434" y1="265.05" x2="137.962" y2="265.05"/>
	</g>
	<g id="POLYLINE_906_">
		
			<line fill="none" stroke="#E74C3C" stroke-width="2.5" stroke-linecap="round" stroke-linejoin="round" stroke-miterlimit="10" x1="153.739" y1="500.728" x2="153.739" y2="524.256"/>
	</g>
	<g id="POLYLINE_905_">
		
			<line fill="none" stroke="#E74C3C" stroke-width="2.5" stroke-linecap="round" stroke-linejoin="round" stroke-miterlimit="10" x1="596.259" y1="500.728" x2="596.259" y2="524.256"/>
	</g>
	<g id="POLYLINE_904_">
		
			<line fill="none" stroke="#E74C3C" stroke-width="2.5" stroke-linecap="round" stroke-linejoin="round" stroke-miterlimit="10" x1="153.739" y1="249.273" x2="153.739" y2="225.744"/>
	</g>
	<g id="POLYLINE_903_">
		
			<line fill="none" stroke="#E74C3C" stroke-width="2.5" stroke-linecap="round" stroke-linejoin="round" stroke-miterlimit="10" x1="596.259" y1="249.273" x2="596.259" y2="225.744"/>
	</g>
	<g id="POLYLINE_902_">
		
			<path fill="none" stroke="#E74C3C" stroke-width="2.5" stroke-linecap="round" stroke-linejoin="round" stroke-miterlimit="10" d="
			M610.267,225.744c6.335,0.055,12.48,2.394,17.15,6.701c4.642,4.281,7.559,10.264,8.065,16.559
			c0.148,1.839,0.083,3.706,0.083,5.549c0,3.801,0,7.602,0,11.402c0,5.963,0,11.926,0,17.889c0,7.663,0,15.326,0,22.99
			c0,8.805,0,17.61,0,26.416c0,9.562,0,19.124,0,28.685c0,9.724,0,19.447,0,29.171c0,9.511,0,19.022,0,28.533
			c0,8.704,0,17.408,0,26.112c0,7.511,0,15.021,0,22.532c0,5.76,0,11.52,0,17.28c0,3.547,0,7.094,0,10.642
			c0,2.255,0.041,4.497-0.316,6.736c-0.99,6.212-4.334,11.93-9.263,15.839c-4.468,3.544-10.051,5.455-15.746,5.477
			c-0.946,0.004-1.893,0-2.839,0c-2.432,0-4.863,0-7.295,0c-3.754,0-7.509,0-11.263,0c-4.985,0-9.97,0-14.956,0
			c-6.024,0-12.048,0-18.072,0c-6.997,0-13.994,0-20.992,0c-7.779,0-15.557,0-23.336,0c-8.444,0-16.888,0-25.333,0
			c-9.001,0-18.003,0-27.004,0c-9.344,0-18.687,0-28.031,0c-9.659,0-19.318,0-28.977,0c-9.728,0-19.456,0-29.185,0
			c-9.775,0-19.55,0-29.325,0c-9.574,0-19.149,0-28.724,0c-9.35,0-18.7,0-28.049,0c-8.908,0-17.815,0-26.723,0
			c-8.358,0-16.716,0-25.074,0c-7.673,0-15.347,0-23.02,0c-6.854,0-13.707,0-20.561,0c-5.915,0-11.829,0-17.744,0
			c-4.794,0-9.588,0-14.382,0c-3.593,0-7.187,0-10.78,0c-2.217,0-4.434,0-6.651,0c-1,0-2.002,0.018-3.001-0.013
			c-6.287-0.2-12.381-2.798-16.879-7.195c-4.514-4.413-7.253-10.475-7.58-16.78c-0.088-1.7-0.034-3.415-0.034-5.116
			c0-3.891,0-7.782,0-11.673c0-6.055,0-12.11,0-18.165c0-7.673,0-15.345,0-23.018c0-8.892,0-17.783,0-26.675
			c0-9.524,0-19.047,0-28.571c0-9.779,0-19.557,0-29.336c0-9.437,0-18.873,0-28.31c0-8.716,0-17.433,0-26.149
			c0-7.411,0-14.823,0-22.234c0-5.705,0-11.409,0-17.114c0-3.454,0-6.909,0-10.363c0-2.421-0.012-4.813,0.442-7.21
			c1.175-6.203,4.706-11.84,9.775-15.604c4.367-3.242,9.698-4.966,15.128-4.987c1.01-0.004,2.02,0,3.03,0c2.47,0,4.941,0,7.411,0
			c3.824,0,7.648,0,11.472,0c4.999,0,9.998,0,14.997,0c6.097,0,12.193,0,18.29,0c7.011,0,14.022,0,21.033,0
			c7.806,0,15.612,0,23.419,0c8.467,0,16.933,0,25.4,0c8.992,0,17.984,0,26.976,0c9.41,0,18.82,0,28.23,0c9.61,0,19.221,0,28.831,0
			c9.787,0,19.574,0,29.36,0c9.716,0,19.431,0,29.147,0c9.622,0,19.244,0,28.866,0c9.283,0,18.565,0,27.848,0
			c8.916,0,17.832,0,26.747,0c8.335,0,16.669,0,25.004,0c7.645,0,15.29,0,22.934,0c6.82,0,13.64,0,20.46,0c5.86,0,11.721,0,17.581,0
			c4.778,0,9.556,0,14.334,0c3.524,0,7.048,0,10.572,0c2.176,0,4.352,0,6.527,0C608.922,225.744,609.594,225.744,610.267,225.744z"
			/>
	</g>
	<g id="POLYLINE_901_">
		
			<path fill="none" stroke="#E74C3C" stroke-width="2.5" stroke-linecap="round" stroke-linejoin="round" stroke-miterlimit="10" d="
			M145.69,476.9c-1.381,1.381-2.762,2.762-4.143,4.143c-0.967,0.967-2.011,1.899-2.883,2.958c-1.418,1.721-2.308,3.852-2.536,6.071
			c-0.46,4.47,1.84,8.901,5.76,11.097c3.921,2.197,8.902,1.844,12.474-0.885c0.996-0.761,1.851-1.708,2.734-2.592
			c0.924-0.924,1.849-1.849,2.773-2.773c0.527-0.527,1.458-1.156,1.816-1.816c0.255-0.47,0.046-1.417,0.006-1.973
			c-0.055-0.768-0.128-1.534-0.23-2.297c-0.189-1.414-0.475-2.829-0.984-4.165c-0.833-2.184-2.423-4.099-4.367-5.393
			c-2.359-1.571-5.303-2.013-8.072-2.24C147.257,476.97,146.474,476.932,145.69,476.9z"/>
	</g>
	<g id="POLYLINE_900_">
		
			<path fill="none" stroke="#E74C3C" stroke-width="2.5" stroke-linecap="round" stroke-linejoin="round" stroke-miterlimit="10" d="
			M361.718,486.31c0.904,3.373,1.808,6.746,2.711,10.119c-4.542,0-9.084,0-13.626,0c-3.255,0-6.511,0-9.766,0
			c-6.227,0-12.454,0-18.682,0c-8.395,0-16.791,0-25.186,0c-9.658,0-19.316,0-28.974,0c-9.987,0-19.974,0-29.961,0
			c-9.555,0-19.109,0-28.664,0c-8.188,0-16.377,0-24.565,0c-5.919,0-11.838,0-17.756,0c-2.824,0-5.705,0.164-8.526,0
			c-0.12-0.007-0.242,0-0.362,0c2.681-2.681,5.362-5.362,8.043-8.043c0.562-0.562,1.124-1.124,1.686-1.686
			c0.105-0.105,0.263-0.334,0.404-0.39c0.135-0.053,0.401,0,0.543,0c3.2,0,6.399,0,9.599,0c6.409,0,12.817,0,19.226,0
			c8.622,0,17.244,0,25.866,0c9.84,0,19.68,0,29.519,0c10.062,0,20.125,0,30.187,0c9.289,0,18.579,0,27.868,0
			c7.521,0,15.042,0,22.562,0c4.757,0,9.514,0,14.27,0c2.954,0,5.908,0,8.862,0C358.569,486.31,360.144,486.31,361.718,486.31z"/>
	</g>
	<g id="POLYLINE_899_">
		
			<path fill="none" stroke="#E74C3C" stroke-width="2.5" stroke-linecap="round" stroke-linejoin="round" stroke-miterlimit="10" d="
			M152.38,375c0-4.088,0-8.176,0-12.264c0-9.383,0-18.765,0-28.148c0-10.355,0-20.709,0-31.064c0-7.004,0-14.008,0-21.012
			c0-0.768,0.29-2.221-0.145-2.866c-0.382-0.567-1.067-1.067-1.549-1.549c-0.864-0.864-1.727-1.727-2.591-2.591
			c-1.653-1.653-3.305-3.305-4.958-4.958c-0.292-0.292-0.584-0.584-0.875-0.875c0,3.508,0,7.015,0,10.523c0,8.391,0,16.781,0,25.172
			c0,10.142,0,20.284,0,30.426c0,8.781,0,17.562,0,26.343c0,4.23,0,8.46,0,12.691c0,2.818,0,5.636,0,8.454
			c0,7.939,0,15.879,0,23.818c0,10.123,0,20.246,0,30.369c0,9.075,0,18.15,0,27.225c0,4.984,0,9.968,0,14.952
			c0,0.228,0,0.457,0,0.685c2.838-2.839,5.677-5.677,8.515-8.516c0.443-0.443,1.42-1.096,1.604-1.693c0.117-0.382,0-0.992,0-1.386
			c0-6.301,0-12.603,0-18.904c0-10.178,0-20.356,0-30.534c0-9.732,0-19.464,0-29.196c0-4.963,0-9.927,0-14.89
			C152.38,375.14,152.38,375.07,152.38,375z"/>
	</g>
	<g id="POLYLINE_898_">
		
			<path fill="none" stroke="#E74C3C" stroke-width="2.5" stroke-linecap="round" stroke-linejoin="round" stroke-miterlimit="10" d="
			M361.718,263.691c0.904-3.373,1.808-6.746,2.711-10.119c-4.542,0-9.084,0-13.626,0c-3.255,0-6.511,0-9.766,0
			c-6.227,0-12.454,0-18.682,0c-8.395,0-16.791,0-25.186,0c-9.658,0-19.316,0-28.974,0c-9.987,0-19.974,0-29.961,0
			c-9.555,0-19.109,0-28.664,0c-8.188,0-16.377,0-24.565,0c-5.919,0-11.838,0-17.756,0c-2.824,0-5.705-0.164-8.526,0
			c-0.12,0.007-0.242,0-0.362,0c2.681,2.681,5.362,5.362,8.043,8.043c0.562,0.562,1.124,1.124,1.686,1.686
			c0.105,0.105,0.263,0.334,0.404,0.39c0.135,0.053,0.401,0,0.543,0c3.2,0,6.399,0,9.599,0c6.409,0,12.817,0,19.226,0
			c8.622,0,17.244,0,25.866,0c9.84,0,19.68,0,29.519,0c10.062,0,20.125,0,30.187,0c9.289,0,18.579,0,27.868,0
			c7.521,0,15.042,0,22.562,0c4.757,0,9.514,0,14.27,0c2.954,0,5.908,0,8.862,0C358.569,263.691,360.144,263.691,361.718,263.691z"
			/>
	</g>
	<g id="POLYLINE_885_">
		
			<path fill="none" stroke="#E74C3C" stroke-width="2.5" stroke-linecap="round" stroke-linejoin="round" stroke-miterlimit="10" d="
			M145.69,273.1c-1.381-1.381-2.762-2.762-4.143-4.143c-0.967-0.967-2.011-1.899-2.883-2.958c-1.418-1.721-2.308-3.852-2.536-6.071
			c-0.46-4.47,1.84-8.901,5.76-11.097c3.921-2.197,8.902-1.844,12.474,0.885c0.996,0.761,1.851,1.708,2.734,2.592
			c0.924,0.924,1.849,1.849,2.773,2.773c0.527,0.527,1.458,1.156,1.816,1.816c0.255,0.47,0.046,1.417,0.006,1.973
			c-0.055,0.768-0.128,1.534-0.23,2.297c-0.189,1.414-0.475,2.829-0.984,4.165c-0.833,2.184-2.423,4.099-4.367,5.393
			c-2.359,1.571-5.303,2.013-8.072,2.24C147.257,273.03,146.474,273.068,145.69,273.1z"/>
	</g>
	<g id="POLYLINE_884_">
		
			<path fill="none" stroke="#E74C3C" stroke-width="2.5" stroke-linecap="round" stroke-linejoin="round" stroke-miterlimit="10" d="
			M388.28,486.31c-0.904,3.373-1.808,6.746-2.711,10.119c4.542,0,9.084,0,13.626,0c3.255,0,6.511,0,9.766,0
			c6.227,0,12.454,0,18.682,0c8.395,0,16.791,0,25.186,0c9.658,0,19.316,0,28.974,0c9.987,0,19.974,0,29.961,0
			c9.555,0,19.109,0,28.664,0c8.188,0,16.377,0,24.565,0c5.919,0,11.838,0,17.756,0c2.824,0,5.705,0.164,8.526,0
			c0.12-0.007,0.242,0,0.362,0c-2.681-2.681-5.362-5.362-8.043-8.043c-0.562-0.562-1.124-1.124-1.686-1.686
			c-0.105-0.105-0.263-0.334-0.404-0.39c-0.135-0.053-0.401,0-0.543,0c-3.2,0-6.399,0-9.599,0c-6.409,0-12.817,0-19.226,0
			c-8.622,0-17.244,0-25.866,0c-9.84,0-19.68,0-29.52,0c-10.062,0-20.125,0-30.187,0c-9.289,0-18.579,0-27.868,0
			c-7.521,0-15.042,0-22.562,0c-4.757,0-9.514,0-14.27,0c-2.954,0-5.908,0-8.862,0C391.429,486.31,389.854,486.31,388.28,486.31z"/>
	</g>
	<g id="POLYLINE_883_">
		
			<path fill="none" stroke="#E74C3C" stroke-width="2.5" stroke-linecap="round" stroke-linejoin="round" stroke-miterlimit="10" d="
			M604.308,476.9c1.381,1.381,2.762,2.762,4.143,4.143c0.967,0.967,2.011,1.899,2.883,2.958c1.418,1.721,2.308,3.852,2.536,6.071
			c0.46,4.47-1.84,8.901-5.76,11.097c-3.921,2.197-8.902,1.844-12.474-0.885c-0.996-0.761-1.851-1.708-2.734-2.592
			c-0.924-0.924-1.849-1.849-2.773-2.773c-0.527-0.527-1.458-1.156-1.816-1.816c-0.255-0.47-0.046-1.417-0.006-1.973
			c0.055-0.768,0.128-1.534,0.23-2.297c0.189-1.414,0.475-2.829,0.984-4.165c0.833-2.184,2.423-4.099,4.367-5.393
			c2.359-1.571,5.303-2.013,8.072-2.24C602.741,476.97,603.524,476.932,604.308,476.9z"/>
	</g>
	<g id="POLYLINE_882_">
		
			<path fill="none" stroke="#E74C3C" stroke-width="2.5" stroke-linecap="round" stroke-linejoin="round" stroke-miterlimit="10" d="
			M597.618,375c0-4.088,0-8.176,0-12.264c0-9.383,0-18.765,0-28.148c0-10.355,0-20.709,0-31.064c0-7.004,0-14.008,0-21.012
			c0-0.768-0.29-2.221,0.145-2.866c0.382-0.567,1.067-1.067,1.549-1.549c0.864-0.864,1.727-1.727,2.591-2.591
			c1.653-1.653,3.305-3.305,4.958-4.958c0.292-0.292,0.584-0.584,0.875-0.875c0,3.508,0,7.015,0,10.523c0,8.391,0,16.781,0,25.172
			c0,10.142,0,20.284,0,30.426c0,8.781,0,17.562,0,26.343c0,4.23,0,8.46,0,12.691c0,2.818,0,5.636,0,8.454
			c0,7.939,0,15.879,0,23.818c0,10.123,0,20.246,0,30.369c0,9.075,0,18.15,0,27.225c0,4.984,0,9.968,0,14.952
			c0,0.228,0,0.457,0,0.685c-2.839-2.839-5.677-5.677-8.516-8.516c-0.443-0.443-1.42-1.096-1.604-1.693
			c-0.117-0.382,0-0.992,0-1.386c0-6.301,0-12.603,0-18.904c0-10.178,0-20.356,0-30.534c0-9.732,0-19.464,0-29.196
			c0-4.963,0-9.927,0-14.89C597.618,375.14,597.618,375.07,597.618,375z"/>
	</g>
	<g id="POLYLINE_881_">
		
			<path fill="none" stroke="#E74C3C" stroke-width="2.5" stroke-linecap="round" stroke-linejoin="round" stroke-miterlimit="10" d="
			M604.308,273.1c1.381-1.381,2.762-2.762,4.143-4.143c0.967-0.967,2.011-1.899,2.883-2.958c1.418-1.721,2.308-3.852,2.536-6.071
			c0.46-4.47-1.84-8.901-5.76-11.097c-3.921-2.197-8.902-1.844-12.474,0.885c-0.996,0.761-1.851,1.708-2.734,2.592
			c-0.924,0.924-1.849,1.849-2.773,2.773c-0.527,0.527-1.458,1.156-1.816,1.816c-0.255,0.47-0.046,1.417-0.006,1.973
			c0.055,0.768,0.128,1.534,0.23,2.297c0.189,1.414,0.475,2.829,0.984,4.165c0.833,2.184,2.423,4.099,4.367,5.393
			c2.359,1.571,5.303,2.013,8.072,2.24C602.741,273.03,603.524,273.068,604.308,273.1z"/>
	</g>
	<g id="POLYLINE_880_">
		
			<path fill="none" stroke="#E74C3C" stroke-width="2.5" stroke-linecap="round" stroke-linejoin="round" stroke-miterlimit="10" d="
			M388.28,263.691c-0.904-3.373-1.808-6.746-2.711-10.119c4.542,0,9.084,0,13.626,0c3.255,0,6.511,0,9.766,0
			c6.227,0,12.454,0,18.682,0c8.395,0,16.791,0,25.186,0c9.658,0,19.316,0,28.974,0c9.987,0,19.974,0,29.961,0
			c9.555,0,19.109,0,28.664,0c8.188,0,16.377,0,24.565,0c5.919,0,11.838,0,17.756,0c2.824,0,5.705-0.164,8.526,0
			c0.12,0.007,0.242,0,0.362,0c-2.681,2.681-5.362,5.362-8.043,8.043c-0.562,0.562-1.124,1.124-1.686,1.686
			c-0.105,0.105-0.263,0.334-0.404,0.39c-0.135,0.053-0.401,0-0.543,0c-3.2,0-6.399,0-9.599,0c-6.409,0-12.817,0-19.226,0
			c-8.622,0-17.244,0-25.866,0c-9.84,0-19.68,0-29.52,0c-10.062,0-20.125,0-30.187,0c-9.289,0-18.579,0-27.868,0
			c-7.521,0-15.042,0-22.562,0c-4.757,0-9.514,0-14.27,0c-2.954,0-5.908,0-8.862,0C391.429,263.691,389.854,263.691,388.28,263.691z
			"/>
	</g>
	<g id="POLYLINE_879_">
		
			<path fill="none" stroke="#E74C3C" stroke-width="2.5" stroke-linecap="round" stroke-linejoin="round" stroke-miterlimit="10" d="
			M364.429,253.571c0.593-2.212,0.946-4.586,2.29-6.496c0.975-1.385,2.299-2.532,3.803-3.309c1.697-0.876,3.626-1.254,5.527-1.045
			c1.826,0.201,3.567,0.941,5.02,2.059c1.271,0.977,2.361,2.249,3.031,3.712c0.527,1.15,0.761,2.437,1.086,3.65
			c0.207,0.771,0.421,1.363,0.3,2.149c-0.081,0.525-0.208,1.044-0.387,1.545c-0.653,1.823-2,3.253-3.699,4.154
			c-2.089,1.107-4.536,1.457-6.875,1.396c-2.233-0.058-4.55-0.516-6.47-1.708c-1.658-1.029-2.859-2.606-3.358-4.498
			C364.558,254.653,364.472,254.114,364.429,253.571z"/>
	</g>
	<g id="POLYLINE_878_">
		
			<path fill="none" stroke="#E74C3C" stroke-width="2.5" stroke-linecap="round" stroke-linejoin="round" stroke-miterlimit="10" d="
			M364.429,496.429c0.593,2.212,0.946,4.586,2.29,6.496c0.975,1.385,2.299,2.532,3.803,3.309c1.697,0.876,3.626,1.254,5.527,1.045
			c1.826-0.201,3.567-0.941,5.02-2.059c1.271-0.977,2.361-2.249,3.031-3.712c0.527-1.15,0.761-2.437,1.086-3.65
			c0.207-0.771,0.421-1.363,0.3-2.149c-0.081-0.525-0.208-1.044-0.387-1.545c-0.653-1.823-2-3.253-3.699-4.154
			c-2.089-1.107-4.536-1.457-6.875-1.396c-2.233,0.058-4.55,0.516-6.47,1.708c-1.658,1.029-2.859,2.606-3.358,4.498
			C364.558,495.347,364.472,495.886,364.429,496.429z"/>
	</g>
</g>
<g id="AG-OUTLINE">
	<g id="POLYLINE_741_">
		
			<path fill="none" stroke="#E74C3C" stroke-width="3.25" stroke-linecap="round" stroke-linejoin="round" stroke-miterlimit="10" d="
			M610.267,225.744c-0.803,0-1.607,0-2.41,0c-2.309,0-4.618,0-6.926,0c-3.677,0-7.354,0-11.031,0c-4.908,0-9.816,0-14.724,0
			c-6.001,0-12.003,0-18.004,0c-6.979,0-13.958,0-20.937,0c-7.755,0-15.51,0-23.266,0c-8.483,0-16.966,0-25.45,0
			c-8.977,0-17.954,0-26.931,0c-9.437,0-18.873,0-28.31,0c-9.651,0-19.302,0-28.953,0c-9.839,0-19.678,0-29.517,0
			c-9.777,0-19.555,0-29.332,0c-9.691,0-19.381,0-29.072,0c-9.356,0-18.712,0-28.067,0c-8.991,0-17.983,0-26.974,0
			c-8.41,0-16.82,0-25.23,0c-7.718,0-15.435,0-23.153,0c-6.907,0-13.813,0-20.72,0c-5.903,0-11.805,0-17.708,0
			c-4.829,0-9.658,0-14.488,0c-3.563,0-7.127,0-10.69,0c-2.201,0-4.402,0-6.602,0c-1.08,0-2.165-0.022-3.244,0.029
			c-6.05,0.288-11.901,2.794-16.279,6.982c-4.395,4.205-7.168,9.955-7.715,16.013c-0.282,3.123-0.102,6.317-0.102,9.447
			c0,2.315,0,4.63,0,6.945c0,1.998,0,3.996,0,5.993c0,4.684,0,9.368,0,14.053c0,6.785,0,13.57,0,20.355c0,8.34,0,16.681,0,25.021
			c0,9.34,0,18.679,0,28.019c0,9.783,0,19.567,0,29.35c0,9.698,0,19.397,0,29.095c0,8.976,0,17.952,0,26.928c0,7.8,0,15.6,0,23.4
			c0,5.98,0,11.961,0,17.941c0,3.672,0,7.344,0,11.016c0,2.3-0.03,4.58,0.357,6.861c1.036,6.102,4.344,11.7,9.184,15.557
			c4.506,3.591,10.137,5.495,15.885,5.507c4.717,0.009,9.434,0,14.151,0c1.347,0,2.693,0,4.04,0c2.846,0,5.692,0,8.538,0
			c4.2,0,8.4,0,12.599,0c5.408,0,10.815,0,16.223,0c6.49,0,12.979,0,19.469,0c7.366,0,14.731,0,22.097,0c8.18,0,16.361,0,24.541,0
			c8.756,0,17.512,0,26.268,0c9.286,0,18.573,0,27.859,0c9.565,0,19.129,0,28.694,0c9.807,0,19.615,0,29.422,0
			c9.792,0,19.584,0,29.376,0c9.743,0,19.486,0,29.23,0c9.437,0,18.875,0,28.312,0c9.094,0,18.188,0,27.283,0
			c8.525,0,17.05,0,25.575,0c7.836,0,15.673,0,23.509,0c7.021,0,14.042,0,21.063,0c6.003,0,12.007,0,18.01,0
			c4.909,0,9.818,0,14.726,0c3.612,0,7.225,0,10.837,0c2.211,0,4.423,0,6.634,0c1.24,0,2.485,0.024,3.723-0.062
			c6.07-0.427,11.888-3.087,16.175-7.407c4.266-4.299,6.886-10.086,7.293-16.129c0.22-3.277,0.057-6.603,0.057-9.884
			c0-1.997,0-3.993,0-5.99c0-2.099,0-4.198,0-6.297c0-4.767,0-9.533,0-14.3c0-6.848,0-13.696,0-20.545c0-8.384,0-16.768,0-25.152
			c0-9.364,0-18.729,0-28.093c0-9.789,0-19.577,0-29.366c0-9.684,0-19.369,0-29.053c0-8.943,0-17.886,0-26.83
			c0-7.747,0-15.495,0-23.242c0-5.909,0-11.818,0-17.727c0-3.581,0-7.162,0-10.743c0-2.424,0.001-4.817-0.464-7.214
			c-1.183-6.095-4.64-11.627-9.593-15.37C621.141,227.551,615.737,225.751,610.267,225.744z"/>
	</g>
	<g id="POLYLINE_740_">
		
			<path fill="none" stroke="#E74C3C" stroke-width="3.25" stroke-linecap="round" stroke-linejoin="round" stroke-miterlimit="10" d="
			M607.737,480.329c1.797,1.797,3.821,3.489,4.981,5.796c0.733,1.459,1.147,3.074,1.205,4.706c0.155,4.37-2.294,8.543-6.186,10.537
			c-3.336,1.709-7.392,1.649-10.674-0.155c-2.439-1.34-4.31-3.67-6.245-5.605c-2.591-2.591-5.182-5.182-7.773-7.773
			c-0.42-0.42-1.043-1.351-1.618-1.526c-0.237-0.072-0.609,0-0.854,0c-1.402,0-2.804,0-4.206,0c-5.594,0-11.188,0-16.782,0
			c-8.38,0-16.76,0-25.139,0c-10.031,0-20.061,0-30.092,0c-10.602,0-21.205,0-31.807,0c-9.921,0-19.842,0-29.764,0
			c-8.161,0-16.322,0-24.483,0c-5.266,0-10.532,0-15.798,0c-2.998,0-5.996,0-8.994,0c-1.194,0-2.389,0-3.583,0
			c-0.295,0-1.392-0.179-1.645,0c-0.238,0.169-0.379,1.415-0.449,1.674c-0.31,1.156-0.619,2.311-0.929,3.467
			c-0.828,3.092-1.494,6.328-2.523,9.36c-0.949,2.794-3.486,5.044-6.233,5.994c-3.248,1.124-6.832,0.373-9.473-1.787
			c-3.194-2.612-3.677-6.468-4.693-10.263c-0.616-2.298-1.232-4.596-1.847-6.895c-0.107-0.399-0.171-1.38-0.529-1.551
			c-0.191-0.091-0.654,0-0.863,0c-0.556,0-1.113,0-1.669,0c-4.558,0-9.117,0-13.675,0c-7.542,0-15.083,0-22.625,0
			c-9.561,0-19.122,0-28.683,0c-10.456,0-20.913,0-31.369,0c-10.38,0-20.76,0-31.14,0c-9.286,0-18.572,0-27.858,0
			c-7.205,0-14.409,0-21.614,0c-4.024,0-8.048,0-12.072,0c-0.419,0-1.183-0.149-1.573,0.017c-0.396,0.168-0.866,0.866-1.161,1.161
			c-0.764,0.764-1.529,1.529-2.293,2.293c-1.74,1.74-3.481,3.481-5.222,5.221c-3.062,3.062-5.856,6.647-10.345,7.444
			c-4.113,0.73-8.407-0.917-10.973-4.216c-2.422-3.112-3.058-7.366-1.655-11.047c0.736-1.93,1.993-3.401,3.437-4.844
			c2.654-2.654,5.307-5.307,7.961-7.961c0.824-0.824,1.648-1.648,2.473-2.473c0.482-0.482,1.166-0.981,1.549-1.549
			c0.174-0.258,0.145-0.363,0.145-0.711c0-1.882,0-3.763,0-5.645c0-8.138,0-16.275,0-24.413c0-10.434,0-20.867,0-31.301
			c0-8.493,0-16.985,0-25.478c0-2.801,0-5.602,0-8.403c0-5.468,0-10.935,0-16.403c0-9.834,0-19.669,0-29.503
			c0-9.958,0-19.915,0-29.873c0-5.916,0-11.833,0-17.749c0-0.285,0.104-0.8,0-1.072c-0.096-0.252-0.522-0.537-0.711-0.726
			c-0.838-0.838-1.676-1.676-2.514-2.514c-2.611-2.611-5.221-5.221-7.832-7.832c-1.6-1.6-3.236-3.102-4.201-5.189
			c-0.684-1.478-1.045-3.101-1.052-4.73c-0.02-4.422,2.619-8.555,6.638-10.398c3.366-1.544,7.363-1.333,10.547,0.553
			c0.841,0.498,1.6,1.106,2.295,1.792c1.487,1.467,2.954,2.954,4.431,4.431c2.543,2.543,5.085,5.085,7.628,7.628
			c0.328,0.328,0.6,0.771,1.035,0.872c0.293,0.068,0.684,0,0.984,0c1.481,0,2.962,0,4.443,0c5.719,0,11.437,0,17.156,0
			c8.462,0,16.924,0,25.386,0c10.07,0,20.141,0,30.211,0c10.6,0,21.199,0,31.799,0c9.876,0,19.751,0,29.627,0
			c8.073,0,16.146,0,24.219,0c5.135,0,10.271,0,15.406,0c3.264,0,6.527,0,9.791,0c1.069,0,2.139,0,3.208,0
			c0.403,0,0.689,0.1,0.889-0.163c0.153-0.201,0.185-0.69,0.25-0.931c0.137-0.51,0.273-1.019,0.41-1.529
			c0.326-1.216,0.652-2.433,0.978-3.65c0.386-1.441,0.772-2.882,1.158-4.323c0.37-1.381,0.642-2.83,1.157-4.168
			c1.072-2.786,3.67-4.989,6.494-5.847c3.278-0.996,6.822-0.108,9.382,2.127c3.197,2.791,3.638,7.092,4.682,10.988
			c0.598,2.233,1.197,4.467,1.795,6.7c0.126,0.47,0.048,0.677,0.402,0.795c0.264,0.088,0.71,0,0.986,0c0.595,0,1.19,0,1.785,0
			c4.688,0,9.377,0,14.065,0c7.633,0,15.267,0,22.9,0c9.615,0,19.23,0,28.845,0c10.472,0,20.944,0,31.415,0
			c10.357,0,20.715,0,31.073,0c9.225,0,18.45,0,27.676,0c7.105,0,14.21,0,21.315,0c3.887,0,7.774,0,11.661,0
			c0.536,0,1.087,0.124,1.506-0.178c0.587-0.423,1.099-1.099,1.609-1.609c0.833-0.833,1.665-1.665,2.498-2.498
			c1.653-1.653,3.305-3.305,4.958-4.958c3.011-3.011,5.715-6.308,10.151-6.951c4.191-0.607,8.481,1.235,10.927,4.693
			c2.246,3.176,2.707,7.385,1.206,10.969c-0.777,1.855-2.053,3.255-3.456,4.659c-2.6,2.6-5.199,5.199-7.799,7.799
			c-0.883,0.883-1.765,1.765-2.648,2.648c-0.395,0.395-1.289,0.987-1.515,1.515c-0.085,0.199-0.011,0.586-0.011,0.8
			c0,2.02,0,4.041,0,6.061c0,8.299,0,16.598,0,24.898c0,10.438,0,20.875,0,31.313c0,8.34,0,16.679,0,25.019c0,2.652,0,5.303,0,7.955
			c0,5.707,0,11.413,0,17.12c0,9.916,0,19.831,0,29.747c0,9.882,0,19.764,0,29.645c0,5.684,0,11.368,0,17.051
			c0,0.21-0.082,0.62,0,0.82c0.087,0.212,0.455,0.458,0.612,0.615c0.589,0.589,1.178,1.178,1.767,1.767
			C602.577,475.169,605.157,477.749,607.737,480.329z"/>
	</g>
</g>
<g id="_x3C_Layer_x3E_">
</g>
</svg>
